<svg id="Vrstva_1" data-name="Vrstva 1" xmlns="http://www.w3.org/2000/svg" viewBox="0 0 345.91 196.64"><defs><style>.cls-1{fill:#fff;}.cls-1,.cls-2,.cls-3,.cls-4{stroke:#1d1d1b;stroke-miterlimit:10;}.cls-1,.cls-2{stroke-width:0.75px;}.cls-2,.cls-4{fill:none;}.cls-3,.cls-5,.cls-6{fill:#1d1d1b;}.cls-3,.cls-4{stroke-width:0.25px;}.cls-5{font-size:60px;font-family:BrushScriptMT, Brush Script MT;}.cls-6{font-size:14px;font-family:MinionVariableConcept-Italic, Minion Variable Concept;font-style:italic;}.cls-7{letter-spacing:-0.01em;}.cls-8{letter-spacing:0em;}.cls-9{letter-spacing:0.01em;}.cls-10{letter-spacing:0em;}.cls-11{letter-spacing:0.01em;}.cls-12{letter-spacing:0em;}</style></defs><rect class="cls-1" x="200.87" y="43.41" width="103.28" height="166.39" transform="translate(125.9 379.11) rotate(-90)"/><rect class="cls-1" x="159.88" y="112.67" width="46.72" height="27.87" transform="translate(56.64 309.85) rotate(-90)"/><rect class="cls-1" x="298.41" y="112.67" width="46.72" height="27.87" transform="translate(195.16 448.37) rotate(-90)"/><line class="cls-2" x1="252.5" y1="178.24" x2="252.5" y2="74.96"/><circle class="cls-2" cx="252.5" cy="126.6" r="9.42"/><rect class="cls-2" x="331.2" y="121.69" width="18.84" height="9.84" transform="translate(214.02 467.22) rotate(-90)"/><rect class="cls-2" x="154.97" y="121.69" width="18.84" height="9.84" transform="translate(37.79 290.99) rotate(-90)"/><rect class="cls-2" x="315.62" y="119.64" width="26.23" height="13.93" transform="translate(202.13 455.34) rotate(-90)"/><rect class="cls-2" x="331.2" y="121.69" width="18.84" height="9.84" transform="translate(214.02 467.22) rotate(-90)"/><rect class="cls-2" x="163.16" y="119.64" width="26.23" height="13.93" transform="translate(49.67 302.88) rotate(-90)"/><circle class="cls-3" cx="314.07" cy="126.6" r="2.09"/><circle class="cls-3" cx="191.03" cy="126.6" r="2.09"/><line class="cls-4" x1="337.89" y1="135.61" x2="337.96" y2="117.18"/><line class="cls-4" x1="339.65" y1="135.61" x2="339.72" y2="117.18"/><line class="cls-4" x1="341.31" y1="136.03" x2="341.38" y2="117.6"/><line class="cls-4" x1="343.15" y1="136.03" x2="343.21" y2="117.6"/><line class="cls-4" x1="344.45" y1="136.04" x2="344.51" y2="117.61"/><line class="cls-4" x1="336.77" y1="135.61" x2="336.83" y2="117.18"/><line class="cls-4" x1="161.44" y1="135.82" x2="161.51" y2="117.39"/><line class="cls-4" x1="163.1" y1="135.82" x2="163.17" y2="117.39"/><line class="cls-4" x1="164.89" y1="135.83" x2="164.95" y2="117.4"/><line class="cls-4" x1="166.55" y1="135.83" x2="166.62" y2="117.4"/><line class="cls-4" x1="167.9" y1="135.83" x2="167.96" y2="117.4"/><line class="cls-4" x1="159.47" y1="133.12" x2="168.94" y2="133.06"/><line class="cls-4" x1="159.66" y1="134.47" x2="169.12" y2="134.41"/><line class="cls-4" x1="159.47" y1="131.73" x2="168.94" y2="131.67"/><line class="cls-4" x1="159.63" y1="130.33" x2="169.09" y2="130.26"/><line class="cls-4" x1="159.62" y1="128.73" x2="169.08" y2="128.66"/><line class="cls-4" x1="159.66" y1="126.95" x2="169.12" y2="126.88"/><line class="cls-4" x1="159.43" y1="125.03" x2="168.89" y2="124.97"/><line class="cls-4" x1="159.41" y1="123.56" x2="168.87" y2="123.5"/><line class="cls-4" x1="159.41" y1="122.17" x2="168.87" y2="122.11"/><line class="cls-4" x1="159.47" y1="120.69" x2="168.94" y2="120.63"/><line class="cls-4" x1="159.66" y1="119.35" x2="169.12" y2="119.29"/><line class="cls-4" x1="159.37" y1="118.33" x2="168.84" y2="118.27"/><line class="cls-4" x1="336.07" y1="134.1" x2="345.54" y2="134.04"/><line class="cls-4" x1="336.06" y1="132.63" x2="345.53" y2="132.57"/><line class="cls-4" x1="336.05" y1="131.03" x2="345.52" y2="130.97"/><line class="cls-4" x1="335.89" y1="129.57" x2="345.35" y2="129.51"/><line class="cls-4" x1="336.07" y1="128.16" x2="345.54" y2="128.09"/><line class="cls-4" x1="336.07" y1="126.64" x2="345.54" y2="126.57"/><line class="cls-4" x1="336.06" y1="125.17" x2="345.53" y2="125.11"/><line class="cls-4" x1="336" y1="123.82" x2="345.47" y2="123.76"/><line class="cls-4" x1="336" y1="122.35" x2="345.47" y2="122.29"/><line class="cls-4" x1="336.07" y1="121.2" x2="345.54" y2="121.14"/><line class="cls-4" x1="336.06" y1="119.74" x2="345.53" y2="119.67"/><line class="cls-4" x1="335.97" y1="118.46" x2="345.43" y2="118.4"/><circle class="cls-2" cx="212.94" cy="163.53" r="3.06"/><circle class="cls-2" cx="229.79" cy="149.17" r="3.06"/><circle class="cls-2" cx="214.09" cy="96.13" r="3.06"/><circle class="cls-2" cx="213.7" cy="117.19" r="3.06"/><circle class="cls-2" cx="274.98" cy="91.72" r="3.06"/><circle class="cls-2" cx="283.4" cy="123.51" r="3.06"/><circle class="cls-2" cx="310.98" cy="166.4" r="3.06"/><circle class="cls-2" cx="271.91" cy="161.04" r="3.06"/><text class="cls-5" transform="translate(226.49 144.77)">M</text><text class="cls-6" transform="translate(196.63 191.56)"><tspan class="cls-7">Fot</tspan><tspan x="17.96" y="0">b</tspan><tspan class="cls-8" x="24.85" y="0">a</tspan><tspan x="31.93" y="0">l</tspan><tspan class="cls-9" x="35.49" y="0">o</tspan><tspan x="42.17" y="0">vรก </tspan><tspan class="cls-10" x="58.59" y="0">a</tspan><tspan class="cls-11" x="65.67" y="0">k</tspan><tspan class="cls-12" x="72.57" y="0">ademie</tspan></text></svg>